<svg width="27" height="31" viewBox="0 0 27 31" fill="none" xmlns="http://www.w3.org/2000/svg">
<path fill-rule="evenodd" clip-rule="evenodd" d="M16.0203 1.42202C16.0203 1.0531 15.7281 0.74321 15.3482 0.74321H7.54611C3.90803 0.74321 0.956665 3.73885 0.956665 7.39855V23.3064C0.956665 27.1432 4.05414 30.2569 7.85293 30.2569H19.4831C23.1065 30.2569 26.0433 27.2908 26.0433 23.6311V11.7666C26.0433 11.3976 25.7511 11.1025 25.3858 11.1025C25.046 11.1025 24.6721 11.1068 24.3287 11.1108C24.1429 11.1129 23.9661 11.115 23.8084 11.1162L23.5595 11.1173C23.2654 11.1173 22.9321 11.1144 22.5573 11.1113C22.0754 11.1072 21.5249 11.1025 20.9003 11.1025C18.2266 11.0878 16.0203 8.87423 16.0203 6.17373V1.42202ZM19.3504 1.5873C18.9135 1.12836 18.1494 1.44416 18.1494 2.08018V5.97008C18.1494 7.60219 19.4804 8.94654 21.0964 8.94654C22.1148 8.95687 23.5305 8.9613 24.7315 8.95687C25.3467 8.95539 25.6593 8.21312 25.2327 7.76599C24.4627 6.95738 23.3896 5.83013 22.3114 4.6975C21.2291 3.56056 20.1416 2.41821 19.3504 1.5873Z" fill="white"/>
<path d="M13.5 23.0493V12.8171" stroke="#3473BC" stroke-width="1.5" stroke-linecap="round" stroke-linejoin="round"/>
<path d="M8.38391 17.9331H18.6161" stroke="#3473BC" stroke-width="1.5" stroke-linecap="round" stroke-linejoin="round"/>
</svg>
