<svg width="24" height="25" viewBox="0 0 24 25" fill="none" xmlns="http://www.w3.org/2000/svg">
<path d="M12 14.5938C11.7167 14.5938 11.4793 14.4978 11.288 14.3057C11.096 14.1144 11 13.8771 11 13.5938C11 13.3104 11.096 13.0728 11.288 12.8807C11.4793 12.6894 11.7167 12.5938 12 12.5938C12.2833 12.5938 12.521 12.6894 12.713 12.8807C12.9043 13.0728 13 13.3104 13 13.5938C13 13.8771 12.9043 14.1144 12.713 14.3057C12.521 14.4978 12.2833 14.5938 12 14.5938ZM8 14.5938C7.71667 14.5938 7.479 14.4978 7.287 14.3057C7.09567 14.1144 7 13.8771 7 13.5938C7 13.3104 7.09567 13.0728 7.287 12.8807C7.479 12.6894 7.71667 12.5938 8 12.5938C8.28333 12.5938 8.521 12.6894 8.713 12.8807C8.90433 13.0728 9 13.3104 9 13.5938C9 13.8771 8.90433 14.1144 8.713 14.3057C8.521 14.4978 8.28333 14.5938 8 14.5938ZM16 14.5938C15.7167 14.5938 15.4793 14.4978 15.288 14.3057C15.096 14.1144 15 13.8771 15 13.5938C15 13.3104 15.096 13.0728 15.288 12.8807C15.4793 12.6894 15.7167 12.5938 16 12.5938C16.2833 12.5938 16.5207 12.6894 16.712 12.8807C16.904 13.0728 17 13.3104 17 13.5938C17 13.8771 16.904 14.1144 16.712 14.3057C16.5207 14.4978 16.2833 14.5938 16 14.5938ZM12 18.5938C11.7167 18.5938 11.4793 18.4978 11.288 18.3057C11.096 18.1144 11 17.8771 11 17.5938C11 17.3104 11.096 17.0731 11.288 16.8818C11.4793 16.6897 11.7167 16.5938 12 16.5938C12.2833 16.5938 12.521 16.6897 12.713 16.8818C12.9043 17.0731 13 17.3104 13 17.5938C13 17.8771 12.9043 18.1144 12.713 18.3057C12.521 18.4978 12.2833 18.5938 12 18.5938ZM8 18.5938C7.71667 18.5938 7.479 18.4978 7.287 18.3057C7.09567 18.1144 7 17.8771 7 17.5938C7 17.3104 7.09567 17.0731 7.287 16.8818C7.479 16.6897 7.71667 16.5938 8 16.5938C8.28333 16.5938 8.521 16.6897 8.713 16.8818C8.90433 17.0731 9 17.3104 9 17.5938C9 17.8771 8.90433 18.1144 8.713 18.3057C8.521 18.4978 8.28333 18.5938 8 18.5938ZM16 18.5938C15.7167 18.5938 15.4793 18.4978 15.288 18.3057C15.096 18.1144 15 17.8771 15 17.5938C15 17.3104 15.096 17.0731 15.288 16.8818C15.4793 16.6897 15.7167 16.5938 16 16.5938C16.2833 16.5938 16.5207 16.6897 16.712 16.8818C16.904 17.0731 17 17.3104 17 17.5938C17 17.8771 16.904 18.1144 16.712 18.3057C16.5207 18.4978 16.2833 18.5938 16 18.5938ZM5 22.5938C4.45 22.5938 3.979 22.3981 3.587 22.0068C3.19567 21.6147 3 21.1437 3 20.5938V6.59375C3 6.04375 3.19567 5.57308 3.587 5.18175C3.979 4.78975 4.45 4.59375 5 4.59375H6V3.59375C6 3.31042 6.09567 3.07275 6.287 2.88075C6.479 2.68942 6.71667 2.59375 7 2.59375C7.28333 2.59375 7.521 2.68942 7.713 2.88075C7.90433 3.07275 8 3.31042 8 3.59375V4.59375H16V3.59375C16 3.31042 16.096 3.07275 16.288 2.88075C16.4793 2.68942 16.7167 2.59375 17 2.59375C17.2833 2.59375 17.5207 2.68942 17.712 2.88075C17.904 3.07275 18 3.31042 18 3.59375V4.59375H19C19.55 4.59375 20.021 4.78975 20.413 5.18175C20.8043 5.57308 21 6.04375 21 6.59375V20.5938C21 21.1437 20.8043 21.6147 20.413 22.0068C20.021 22.3981 19.55 22.5938 19 22.5938H5ZM5 20.5938H19V10.5938H5V20.5938ZM5 8.59375H19V6.59375H5V8.59375ZM5 8.59375V6.59375V8.59375Z" fill="black"/>
</svg>
