<svg width="14" height="15" viewBox="0 0 14 15" fill="none" xmlns="http://www.w3.org/2000/svg">
<path d="M3.14287 11.1559H3.91519L8.67325 6.39782L7.90093 5.6255L3.14287 10.3836V11.1559ZM11.0316 5.59792L8.68704 3.28095L9.45936 2.50863C9.67083 2.29716 9.93066 2.19142 10.2389 2.19142C10.5467 2.19142 10.8063 2.29716 11.0178 2.50863L11.7901 3.28095C12.0016 3.49242 12.1119 3.74765 12.1211 4.04665C12.1303 4.34528 12.0292 4.60033 11.8177 4.8118L11.0316 5.59792ZM2.59121 12.2592C2.43491 12.2592 2.30398 12.2062 2.19843 12.1003C2.09251 11.9948 2.03955 11.8638 2.03955 11.7075V10.1491C2.03955 10.0755 2.05334 10.0044 2.08093 9.93561C2.10851 9.86647 2.14988 9.80431 2.20505 9.74915L7.88714 4.06706L10.2317 6.41161L4.5496 12.0937C4.49443 12.1489 4.43246 12.1902 4.36369 12.2178C4.29455 12.2454 4.2232 12.2592 4.14965 12.2592H2.59121ZM8.28709 6.01166L7.90093 5.6255L8.67325 6.39782L8.28709 6.01166Z" fill="black"/>
</svg>
