<svg width="46" height="46" viewBox="0 0 46 46" fill="none" xmlns="http://www.w3.org/2000/svg">
<path d="M38.1795 21.1026C38.1795 17.0768 36.5802 13.2158 33.7335 10.3691C30.8868 7.52239 27.0258 5.92313 23 5.92313C18.9741 5.92313 15.1132 7.52239 12.2665 10.3691C9.41976 13.2158 7.8205 17.0768 7.8205 21.1026" stroke="white" stroke-width="1.5" stroke-linecap="round" stroke-linejoin="round"/>
<path d="M38.1795 34.3847V35.3334C38.1795 36.3398 37.7797 37.3051 37.068 38.0168C36.3563 38.7284 35.3911 39.1282 34.3846 39.1282H27.7436M4.02563 29.5234V25.9638C4.02576 25.1176 4.30874 24.2957 4.82959 23.6287C5.35044 22.9618 6.07927 22.488 6.90025 22.2828L10.2018 21.4555C10.3696 21.4137 10.5446 21.4107 10.7137 21.4467C10.8828 21.4827 11.0415 21.5567 11.1778 21.6631C11.314 21.7695 11.4242 21.9056 11.5001 22.061C11.5759 22.2163 11.6153 22.3869 11.6154 22.5598V32.9255C11.6157 33.0988 11.5764 33.2698 11.5006 33.4256C11.4248 33.5814 11.3145 33.7178 11.1779 33.8245C11.0414 33.9312 10.8824 34.0053 10.7129 34.0412C10.5434 34.0771 10.3679 34.0739 10.1999 34.0317L6.89835 33.2063C6.07772 33.0008 5.34932 32.5269 4.82884 31.86C4.30836 31.193 4.02566 30.3713 4.02563 29.5253V29.5234ZM41.9744 29.5234V25.9638C41.9742 25.1176 41.6912 24.2957 41.1704 23.6287C40.6496 22.9618 39.9207 22.488 39.0997 22.2828L35.7982 21.4555C35.6304 21.4137 35.4554 21.4107 35.2862 21.4467C35.1171 21.4827 34.9584 21.5567 34.8222 21.6631C34.686 21.7695 34.5758 21.9056 34.4999 22.061C34.4241 22.2163 34.3847 22.3869 34.3846 22.5598V32.9255C34.3844 33.0986 34.4236 33.2694 34.4993 33.425C34.575 33.5806 34.6852 33.7169 34.8215 33.8236C34.9577 33.9302 35.1165 34.0044 35.2858 34.0405C35.455 34.0765 35.6303 34.0736 35.7982 34.0317L39.0997 33.2063C39.9207 33.0011 40.6496 32.5274 41.1704 31.8604C41.6912 31.1935 41.9742 30.3716 41.9744 29.5253V29.5234Z" stroke="white" stroke-width="1.5"/>
<path d="M25.8461 41.9744H20.1538C19.399 41.9744 18.6751 41.6745 18.1413 41.1408C17.6075 40.607 17.3077 39.8831 17.3077 39.1283C17.3077 38.3734 17.6075 37.6495 18.1413 37.1157C18.6751 36.582 19.399 36.2821 20.1538 36.2821H25.8461C26.601 36.2821 27.3249 36.582 27.8587 37.1157C28.3924 37.6495 28.6923 38.3734 28.6923 39.1283C28.6923 39.8831 28.3924 40.607 27.8587 41.1408C27.3249 41.6745 26.601 41.9744 25.8461 41.9744Z" stroke="white" stroke-width="1.5"/>
</svg>
