<svg width="119" height="129" viewBox="0 0 119 129" fill="none" xmlns="http://www.w3.org/2000/svg">
<path d="M77.7272 91.4955L87.9486 122.766C88.1993 123.533 87.7993 124.366 87.0563 124.625L74.7243 128.923C73.9812 129.182 73.1751 128.77 72.9244 128.002L62.5923 96.3908C59.4308 96.9358 56.1693 97.2185 52.8372 97.2185C23.6564 97.2185 0 75.4545 0 48.6093C0 21.764 23.6579 0 52.8386 0C82.0194 0 105.676 21.764 105.676 48.6093C105.676 67.175 94.3606 83.3114 77.7272 91.4955Z" fill="#A52B17"/>
<path d="M52.8388 91.3971C78.5262 91.3971 99.3499 72.2404 99.3499 48.6093C99.3499 24.9783 78.5262 5.82159 52.8388 5.82159C27.1514 5.82159 6.32764 24.9783 6.32764 48.6093C6.32764 72.2404 27.1514 91.3971 52.8388 91.3971Z" fill="white"/>
<path d="M52.8387 87.0865C75.9381 87.0865 94.6638 69.8597 94.6638 48.6093C94.6638 27.359 75.9381 10.1321 52.8387 10.1321C29.7394 10.1321 11.0135 27.359 11.0135 48.6093C11.0135 69.8597 29.7394 87.0865 52.8387 87.0865Z" fill="#A52B17"/>
<path d="M19.1676 44.1526V32.5413H23.0337C24.4813 32.5413 25.5567 32.8256 26.2628 33.3945C26.9689 33.9633 27.3212 34.8356 27.3212 36.0114C27.3212 36.7661 27.1397 37.3936 26.7766 37.899C26.4136 38.4026 25.8921 38.7521 25.212 38.9444L27.7428 44.1543H25.4336L23.2321 39.4432H21.269V44.1543H19.1676V44.1526ZM21.269 37.6017H23.1413C23.8321 37.6017 24.3397 37.4715 24.6644 37.2126C24.989 36.9519 25.152 36.5451 25.152 35.9875C25.152 35.4361 24.989 35.031 24.6644 34.7705C24.3397 34.5099 23.8321 34.3812 23.1413 34.3812H21.269V37.6017Z" fill="white"/>
<path d="M36.3569 42.5065C36.0445 43.0991 35.6108 43.5473 35.0523 43.8523C34.4955 44.1557 33.8354 44.3082 33.0739 44.3082C31.9739 44.3082 31.1186 43.9285 30.5047 43.169C29.8909 42.4097 29.5848 41.3466 29.5848 39.9803C29.5848 38.6122 29.8909 37.5446 30.5017 36.7756C31.1125 36.0066 31.9601 35.622 33.0447 35.622C34.1231 35.622 34.9615 35.9938 35.5569 36.7374C36.1523 37.4811 36.4507 38.5265 36.4507 39.8723C36.4507 39.9183 36.4476 39.9898 36.4431 40.0867C36.4384 40.1836 36.4354 40.2551 36.4354 40.3012L31.5032 40.3091C31.514 41.0988 31.6648 41.693 31.9554 42.0919C32.2462 42.4907 32.6786 42.6877 33.2524 42.6877C33.6108 42.6877 33.9215 42.6034 34.1846 42.4334C34.4477 42.2651 34.697 41.9901 34.9324 41.6104L36.3569 42.5065ZM31.5325 38.8807H34.5385C34.5385 38.3247 34.4062 37.8909 34.14 37.5779C33.8739 37.2665 33.5078 37.1109 33.0432 37.1109C32.6031 37.1109 32.2524 37.2648 31.9878 37.5747C31.7232 37.8846 31.574 38.32 31.5325 38.8807Z" fill="white"/>
<path d="M39.2363 44.1526V32.5413H42.7271C44.4916 32.5413 45.8239 33.0275 46.7269 33.9998C47.63 34.9723 48.0807 36.407 48.0807 38.3041C48.0807 40.2488 47.6269 41.7089 46.7192 42.6861C45.8116 43.6633 44.4531 44.1526 42.6425 44.1526H39.2363ZM41.3917 42.2348H42.5655C43.7409 42.2348 44.5901 41.9266 45.1116 41.3102C45.6331 40.6937 45.8946 39.6911 45.8946 38.3041C45.8946 36.9884 45.6238 36.0224 45.0823 35.4028C44.5408 34.7847 43.6916 34.475 42.5363 34.475H41.3932V42.2348H41.3917Z" fill="white"/>
<path d="M51.0342 44.1526V32.5413H55.1142C56.4587 32.5413 57.4617 32.8256 58.1202 33.3945C58.7786 33.9633 59.1095 34.8277 59.1095 35.9875C59.1095 37.1204 58.7878 37.9831 58.1433 38.5726C57.4987 39.1621 56.5587 39.4576 55.3203 39.4576H53.2034V44.1526H51.0342ZM53.2034 37.6177H54.7988C55.5865 37.6177 56.1418 37.4922 56.4664 37.2427C56.791 36.9933 56.9541 36.5754 56.9541 35.9875C56.9541 35.3949 56.791 34.9739 56.4664 34.7244C56.1418 34.475 55.5849 34.3495 54.7988 34.3495H53.2034V37.6177Z" fill="white"/>
<path d="M67.4191 42.5065C67.1067 43.0991 66.6729 43.5473 66.1145 43.8523C65.5576 44.1557 64.8975 44.3082 64.136 44.3082C63.0361 44.3082 62.1807 43.9285 61.5669 43.169C60.953 42.4097 60.6469 41.3466 60.6469 39.9803C60.6469 38.6122 60.953 37.5446 61.5637 36.7756C62.1746 36.0066 63.0223 35.622 64.1069 35.622C65.1852 35.622 66.0236 35.9938 66.619 36.7374C67.2144 37.4811 67.5129 38.5265 67.5129 39.8723C67.5129 39.9183 67.5098 39.9898 67.5052 40.0867C67.5005 40.1836 67.4975 40.2551 67.4975 40.3012L62.5653 40.3091C62.5761 41.0988 62.7268 41.693 63.0176 42.0919C63.3084 42.4907 63.7406 42.6877 64.3145 42.6877C64.673 42.6877 64.9837 42.6034 65.2468 42.4334C65.5098 42.2651 65.759 41.9901 65.9945 41.6104L67.4191 42.5065ZM62.5946 38.8807H65.6007C65.6007 38.3247 65.4683 37.8909 65.2021 37.5779C64.9361 37.2648 64.5699 37.1109 64.1053 37.1109C63.6653 37.1109 63.3145 37.2648 63.0499 37.5747C62.7869 37.8846 62.6345 38.32 62.5946 38.8807Z" fill="white"/>
<path d="M72.3209 44.1526V34.4591H69.3225V32.5413H77.4916V34.4591H74.4932V44.1526H72.3209Z" fill="white"/>
<path d="M82.1555 44.1526V34.4591H79.1571V32.5413H87.3262V34.4591H84.3278V44.1526H82.1555Z" fill="white"/>
<path d="M41.6997 68.594V52.7595H51.5317V55.3334H44.6596V59.056H49.8579V61.63H44.6596V68.5956H41.6997V68.594Z" fill="white"/>
<path d="M55.1935 68.594V52.7595H58.175V65.8929H64.7439V68.594H55.1935Z" fill="white"/>
<path d="M110.847 109.47H54.8204C54.3743 109.47 54.0143 109.097 54.0143 108.638V74.7315C54.0143 74.2708 54.3759 73.899 54.8204 73.899H110.847C111.293 73.899 111.653 74.2724 111.653 74.7315V108.638C111.653 109.097 111.293 109.47 110.847 109.47Z" fill="#2661A5"/>
<path fill-rule="evenodd" clip-rule="evenodd" d="M54.8682 74.7809V108.588H110.799V74.7809H54.8682ZM53.1605 74.7316C53.1605 73.7827 53.9054 73.0172 54.8205 73.0172H110.847C111.765 73.0172 112.507 73.7865 112.507 74.7316V108.638C112.507 109.583 111.765 110.352 110.847 110.352H54.8205C53.9016 110.352 53.1605 109.583 53.1605 108.638V74.7316Z" fill="white"/>
<path d="M72.7935 95.9253C72.4842 97.3282 71.8658 99.5478 71.4611 100.571C70.8427 100.746 68.6535 101.331 67.0336 101.331C60.703 101.331 58.0599 96.2764 58.0599 91.6305C58.0599 85.6406 61.8199 81.462 67.5089 81.462C69.4366 81.462 71.1981 82.0753 71.8412 82.2516C72.055 83.8579 72.2227 85.2022 72.3888 87.0436L71.5089 87.2486C70.7228 83.7722 68.8904 82.7489 67.0582 82.7489C63.6076 82.7489 61.7029 86.7512 61.7029 91.0475C61.7029 96.4241 64.0598 99.9594 67.2967 99.9594C69.272 99.9594 70.7474 98.4102 71.9612 95.4597L72.7935 95.9253Z" fill="white"/>
<path d="M81.314 81.9006C84.2893 81.9006 86.5985 82.6315 88.1446 84.4427C89.3107 85.8155 90.2384 87.8905 90.2384 90.6377C90.2384 94.203 89.0723 96.7451 87.2631 98.469C85.5015 100.106 83.0263 100.894 80.0509 100.894H73.9342V99.8704C75.8142 99.6655 76.0525 99.4621 76.0525 96.9772V85.8155C76.0525 83.3019 75.8388 83.1272 74.148 82.9221V81.899H81.314V81.9006ZM79.2448 96.8024C79.2448 98.906 79.6017 99.6369 81.2679 99.6369C84.457 99.6369 86.6462 96.4226 86.6462 91.2223C86.6462 88.4467 85.9555 86.2255 84.8847 84.9114C83.8846 83.7134 82.6232 83.1002 81.0048 83.1002C80.1479 83.1002 79.6479 83.3337 79.5047 83.5085C79.291 83.7722 79.2432 84.2679 79.2432 85.1148V96.8024H79.2448Z" fill="white"/>
<path d="M107.423 95.9253C107.114 97.3282 106.496 99.5479 106.091 100.571C105.473 100.746 103.282 101.331 101.664 101.331C95.333 101.331 92.6899 96.2764 92.6899 91.6307C92.6899 85.6406 96.4499 81.462 102.139 81.462C104.067 81.462 105.828 82.0753 106.471 82.2516C106.685 83.8579 106.851 85.2022 107.019 87.0436L106.139 87.2486C105.353 83.7722 103.52 82.7489 101.688 82.7489C98.2376 82.7489 96.3329 86.7512 96.3329 91.0475C96.3329 96.4242 98.6898 99.9594 101.927 99.9594C103.902 99.9594 105.377 98.4103 106.591 95.4597L107.423 95.9253Z" fill="white"/>
<path fill-rule="evenodd" clip-rule="evenodd" d="M58.4292 109.347L60.906 73.8678L61.1493 73.8858L58.6725 109.365L58.4292 109.347Z" fill="white"/>
<path fill-rule="evenodd" clip-rule="evenodd" d="M60.4182 109.199L65.0703 73.8345L65.312 73.8685L60.66 109.233L60.4182 109.199Z" fill="white"/>
<path fill-rule="evenodd" clip-rule="evenodd" d="M62.236 109.716L69.2619 73.2675L69.5012 73.3167L62.4751 109.765L62.236 109.716Z" fill="white"/>
<path fill-rule="evenodd" clip-rule="evenodd" d="M63.8199 109.916L74.3674 74.5167L74.6006 74.5907L64.0531 109.99L63.8199 109.916Z" fill="white"/>
<path fill-rule="evenodd" clip-rule="evenodd" d="M66.417 109.265L78.7536 74.0976L78.983 74.1834L66.6464 109.351L66.417 109.265Z" fill="white"/>
<path fill-rule="evenodd" clip-rule="evenodd" d="M68.0994 109.284L84.3651 74.3766L84.585 74.4859L68.3191 109.393L68.0994 109.284Z" fill="white"/>
<path fill-rule="evenodd" clip-rule="evenodd" d="M71.6909 109.521L92.8365 73.6285L93.045 73.7595L71.8994 109.652L71.6909 109.521Z" fill="white"/>
<path fill-rule="evenodd" clip-rule="evenodd" d="M74.4116 109.757L100.511 74.0187L100.706 74.1704L74.6064 109.908L74.4116 109.757Z" fill="white"/>
<path fill-rule="evenodd" clip-rule="evenodd" d="M78.5912 109.008L110.106 74.007L110.284 74.1786L78.7698 109.179L78.5912 109.008Z" fill="white"/>
<path fill-rule="evenodd" clip-rule="evenodd" d="M84.3615 109.233L111.028 85.7941L111.187 85.986L84.5195 109.425L84.3615 109.233Z" fill="white"/>
<path fill-rule="evenodd" clip-rule="evenodd" d="M92.429 108.989L110.851 96.2305L110.987 96.4398L92.5648 109.198L92.429 108.989Z" fill="white"/>
<path d="M114.046 110.578C114.018 110.549 114.004 110.504 114.004 110.447V107.805H113.184C113.121 107.805 113.08 107.792 113.055 107.767C113.032 107.741 113.02 107.697 113.02 107.637V107.506C113.02 107.444 113.032 107.4 113.055 107.373C113.078 107.346 113.121 107.332 113.184 107.332H115.424C115.487 107.332 115.53 107.346 115.555 107.373C115.58 107.4 115.592 107.444 115.592 107.506V107.637C115.592 107.699 115.58 107.741 115.555 107.767C115.53 107.792 115.486 107.805 115.424 107.805H114.604V110.447C114.604 110.506 114.59 110.549 114.564 110.578C114.538 110.606 114.492 110.62 114.426 110.62H114.183C114.12 110.622 114.075 110.608 114.046 110.578Z" fill="#2661A5"/>
<path d="M115.928 110.578C115.902 110.549 115.888 110.504 115.888 110.447V107.51C115.888 107.449 115.902 107.403 115.928 107.374C115.954 107.346 116 107.332 116.066 107.332H116.318C116.368 107.332 116.406 107.338 116.434 107.351C116.462 107.363 116.482 107.389 116.497 107.428L117.443 109.678L118.389 107.428C118.405 107.39 118.426 107.363 118.452 107.351C118.478 107.338 118.517 107.332 118.568 107.332H118.822C118.888 107.332 118.934 107.346 118.96 107.374C118.986 107.403 119 107.449 119 107.51V110.447C119 110.506 118.986 110.549 118.96 110.578C118.934 110.606 118.889 110.621 118.826 110.621H118.62C118.557 110.621 118.512 110.606 118.485 110.578C118.457 110.549 118.443 110.504 118.443 110.447V108.361L117.642 110.206C117.617 110.258 117.591 110.295 117.566 110.317C117.542 110.339 117.5 110.35 117.445 110.35C117.388 110.35 117.348 110.339 117.32 110.317C117.294 110.295 117.269 110.257 117.248 110.206L116.446 108.361V110.447C116.446 110.506 116.432 110.549 116.406 110.578C116.38 110.606 116.334 110.621 116.268 110.621H116.062C116 110.622 115.955 110.608 115.928 110.578Z" fill="#2661A5"/>
</svg>
