<svg width="19" height="20" viewBox="0 0 19 20" fill="none" xmlns="http://www.w3.org/2000/svg">
<path d="M17.7111 16.4162V17.4139H0.5V16.4162L0.538589 16.3821L0.538621 16.3822L0.543783 16.3775C1.15745 15.8206 1.69394 15.1842 2.13899 14.4852L2.15165 14.4653L2.16239 14.4443C2.66068 13.4699 2.95934 12.4058 3.04083 11.3145L3.04222 11.2959V11.2772L3.04222 8.25833L3.04222 8.25732C3.03924 6.78058 3.57154 5.3528 4.54052 4.23842C5.5095 3.12404 6.84951 2.39858 8.31234 2.1964L8.74389 2.13675V1.70111V0.90055C8.74389 0.816786 8.77716 0.736453 8.83639 0.677223C8.89563 0.617992 8.97596 0.584717 9.05972 0.584717C9.14349 0.584717 9.22382 0.617992 9.28305 0.677222C9.34228 0.736452 9.37556 0.816786 9.37556 0.90055V1.68888V2.12907L9.81219 2.18485C11.2883 2.37344 12.6446 3.09454 13.6265 4.21268C14.6084 5.33081 15.1482 6.76902 15.1444 8.25707V8.25833V11.2772V11.2959L15.1458 11.3145C15.2273 12.4058 15.526 13.4699 16.0243 14.4443L16.0358 14.4668L16.0495 14.488C16.5024 15.1889 17.0477 15.8254 17.6707 16.3805L17.6725 16.3821L17.7111 16.4162Z" stroke="#A52B17"/>
<path d="M8.17009 19.4039C7.97065 19.2301 7.82493 19.0052 7.7472 18.7555H10.4578C10.3801 19.0052 10.2343 19.2301 10.0349 19.4039C9.77644 19.629 9.44525 19.7531 9.10249 19.7531C8.75972 19.7531 8.42854 19.629 8.17009 19.4039Z" stroke="#A52B17" stroke-width="0.4"/>
<circle cx="16.1361" cy="2" r="2" fill="#A52B17"/>
</svg>
