<svg width="24" height="24" viewBox="0 0 24 24" fill="none" xmlns="http://www.w3.org/2000/svg">
<path d="M12 14.975C11.8667 14.975 11.7377 14.95 11.613 14.9C11.4877 14.85 11.3834 14.7833 11.3 14.7L6.70005 10.1C6.51672 9.91667 6.42505 9.68333 6.42505 9.4C6.42505 9.11667 6.51672 8.88333 6.70005 8.7C6.88338 8.51667 7.11672 8.425 7.40005 8.425C7.68338 8.425 7.91672 8.51667 8.10005 8.7L12 12.6L15.9 8.7C16.0834 8.51667 16.3167 8.425 16.6 8.425C16.8834 8.425 17.1167 8.51667 17.3 8.7C17.4834 8.88333 17.575 9.11667 17.575 9.4C17.575 9.68333 17.4834 9.91667 17.3 10.1L12.7 14.7C12.6 14.8 12.4917 14.8707 12.375 14.912C12.2584 14.954 12.1334 14.975 12 14.975Z" fill="black"/>
</svg>
